<?xml version="1.0" encoding="UTF-8" standalone="no"?>
<!DOCTYPE svg PUBLIC "-//W3C//DTD SVG 1.1//EN"
 "http://www.w3.org/Graphics/SVG/1.1/DTD/svg11.dtd">
<!-- Generated by graphviz version 2.40.1 (20161225.0304)
 -->
<!-- Title: G Pages: 1 -->
<svg width="291pt" height="332pt"
 viewBox="0.00 0.00 291.16 332.00" xmlns="http://www.w3.org/2000/svg" xmlns:xlink="http://www.w3.org/1999/xlink">
<g id="graph0" class="graph" transform="scale(1 1) rotate(0) translate(4 328)">
<title>G</title>
<polygon fill="#ffffff" stroke="transparent" points="-4,4 -4,-328 287.164,-328 287.164,4 -4,4"/>
<!-- A0 -->
<g id="node1" class="node">
<title>A0</title>
<g transform="translate(49.2905,-33)" style="fill:none;stroke:black;stroke-width:1px"><circle cx="0" cy="-20" r="7.5" />
                <line x1="0" y1="-12.5" x2="0" y2="5" />
                <line x1="-15" y1="-5" x2="15" y2="-5" />
                <line x1="0" y1="5" x2="-15" y2="17" />
                <line x1="0" y1="5" x2="15" y2="17" /></g>
<text text-anchor="middle" x="49.2905" y="-8" font-family="Helvetica,sans-Serif" font-size="10.00" fill="#000000">Station</text>
</g>
<!-- A1 -->
<g id="node2" class="node">
<title>A1</title>
<ellipse fill="none" stroke="#000000" cx="215.8725" cy="-36" rx="50.6788" ry="18"/>
<text text-anchor="middle" x="215.8725" y="-33" font-family="Helvetica,sans-Serif" font-size="10.00" fill="#000000">Report State</text>
</g>
<!-- A0&#45;&gt;A1 -->
<g id="edge1" class="edge">
<title>A0&#45;&gt;A1</title>
<path fill="none" stroke="#000000" d="M94.37,-36C116.2427,-36 142.6039,-36 165.1741,-36"/>
</g>
<!-- A2 -->
<g id="node3" class="node">
<title>A2</title>
<g transform="translate(49.2905,-141)" style="fill:none;stroke:black;stroke-width:1px"><circle cx="0" cy="-20" r="7.5" />
                <line x1="0" y1="-12.5" x2="0" y2="5" />
                <line x1="-15" y1="-5" x2="15" y2="-5" />
                <line x1="0" y1="5" x2="-15" y2="17" />
                <line x1="0" y1="5" x2="15" y2="17" /></g>
<text text-anchor="middle" x="49.2905" y="-116" font-family="Helvetica,sans-Serif" font-size="10.00" fill="#000000">Frontend</text>
</g>
<!-- A3 -->
<g id="node4" class="node">
<title>A3</title>
<ellipse fill="none" stroke="#000000" cx="215.8725" cy="-198" rx="63.9082" ry="18"/>
<text text-anchor="middle" x="215.8725" y="-195" font-family="Helvetica,sans-Serif" font-size="10.00" fill="#000000">Get Current State</text>
</g>
<!-- A2&#45;&gt;A3 -->
<g id="edge2" class="edge">
<title>A2&#45;&gt;A3</title>
<path fill="none" stroke="#000000" d="M98.8196,-160.0556C122.7002,-167.7968 151.0379,-176.9829 173.8494,-184.3776"/>
</g>
<!-- A4 -->
<g id="node5" class="node">
<title>A4</title>
<ellipse fill="none" stroke="#000000" cx="215.8725" cy="-144" rx="58.7298" ry="18"/>
<text text-anchor="middle" x="215.8725" y="-141" font-family="Helvetica,sans-Serif" font-size="10.00" fill="#000000">Get Station Info</text>
</g>
<!-- A2&#45;&gt;A4 -->
<g id="edge3" class="edge">
<title>A2&#45;&gt;A4</title>
<path fill="none" stroke="#000000" d="M98.8196,-144C117.1376,-144 138.0782,-144 157.1355,-144"/>
</g>
<!-- A5 -->
<g id="node6" class="node">
<title>A5</title>
<ellipse fill="none" stroke="#000000" cx="215.8725" cy="-90" rx="49.6716" ry="18"/>
<text text-anchor="middle" x="215.8725" y="-87" font-family="Helvetica,sans-Serif" font-size="10.00" fill="#000000">List Stations</text>
</g>
<!-- A2&#45;&gt;A5 -->
<g id="edge4" class="edge">
<title>A2&#45;&gt;A5</title>
<path fill="none" stroke="#000000" d="M98.8196,-127.9444C124.4265,-119.6436 155.1582,-109.6814 178.7061,-102.048"/>
</g>
<!-- A6 -->
<g id="node7" class="node">
<title>A6</title>
<g transform="translate(49.2905,-276)" style="fill:none;stroke:black;stroke-width:1px"><circle cx="0" cy="-20" r="7.5" />
                <line x1="0" y1="-12.5" x2="0" y2="5" />
                <line x1="-15" y1="-5" x2="15" y2="-5" />
                <line x1="0" y1="5" x2="-15" y2="17" />
                <line x1="0" y1="5" x2="15" y2="17" /></g>
<text text-anchor="middle" x="49.2905" y="-251" font-family="Helvetica,sans-Serif" font-size="10.00" fill="#000000">Admin</text>
</g>
<!-- A7 -->
<g id="node8" class="node">
<title>A7</title>
<ellipse fill="none" stroke="#000000" cx="215.8725" cy="-306" rx="67.0837" ry="18"/>
<text text-anchor="middle" x="215.8725" y="-303" font-family="Helvetica,sans-Serif" font-size="10.00" fill="#000000">Get Station History</text>
</g>
<!-- A6&#45;&gt;A7 -->
<g id="edge5" class="edge">
<title>A6&#45;&gt;A7</title>
<path fill="none" stroke="#000000" d="M93.058,-286.0939C113.0122,-289.3282 136.9063,-293.201 158.2929,-296.6674"/>
</g>
<!-- A8 -->
<g id="node9" class="node">
<title>A8</title>
<ellipse fill="none" stroke="#000000" cx="215.8725" cy="-252" rx="59.7154" ry="18"/>
<text text-anchor="middle" x="215.8725" y="-249" font-family="Helvetica,sans-Serif" font-size="10.00" fill="#000000">Register Station</text>
</g>
<!-- A6&#45;&gt;A8 -->
<g id="edge6" class="edge">
<title>A6&#45;&gt;A8</title>
<path fill="none" stroke="#000000" d="M93.058,-271.9061C114.5545,-268.4219 140.6236,-264.1965 163.2042,-260.5366"/>
</g>
</g>
</svg>
